<?xml version="1.0" standalone="no"?>
<!DOCTYPE svg PUBLIC "-//W3C//DTD SVG 20010904//EN"
 "http://www.w3.org/TR/2001/REC-SVG-20010904/DTD/svg10.dtd">
<svg version="1.0" xmlns="http://www.w3.org/2000/svg"
 width="690.000000pt" height="690.000000pt" viewBox="0 0 690.000000 690.000000"
 preserveAspectRatio="xMidYMid meet">
<metadata>
Created by potrace 1.14, written by Peter Selinger 2001-2017
</metadata>
<g transform="translate(0.000000,690.000000) scale(0.100000,-0.100000)"
fill="#000000" stroke="none">
<path d="M3645 6534 c-11 -1 -50 -6 -88 -9 -37 -4 -65 -11 -62 -16 4 -5 0 -6
-8 -3 -7 2 -27 0 -43 -7 -44 -17 -206 -49 -217 -42 -5 3 -6 -3 -2 -16 8 -25
-5 -27 -46 -5 -35 18 -69 10 -122 -28 -43 -31 -65 -44 -109 -64 -21 -9 -38
-19 -38 -24 0 -4 -23 -22 -50 -41 -28 -19 -53 -41 -55 -51 -3 -9 -12 -19 -20
-22 -8 -3 -15 -17 -15 -31 0 -16 -6 -25 -15 -25 -13 0 -19 -19 -18 -57 1 -7
-5 -13 -12 -13 -7 0 -16 6 -18 13 -4 8 -6 7 -6 -4 -1 -8 5 -21 12 -28 10 -11
9 -12 -2 -6 -11 6 -13 3 -9 -13 4 -12 2 -25 -4 -28 -6 -4 -8 -30 -3 -69 5 -47
2 -76 -10 -111 -15 -44 -15 -49 -1 -60 18 -13 22 -39 5 -28 -7 4 -9 0 -5 -14
4 -12 0 -57 -8 -100 -8 -44 -18 -122 -21 -173 -11 -158 -12 -173 -20 -192 -5
-12 -1 -23 11 -32 22 -17 15 -19 -20 -6 -18 8 -28 6 -37 -5 -14 -17 -16 -84
-2 -108 8 -15 11 -15 31 2 12 11 22 29 22 41 0 11 4 21 10 21 5 0 7 -7 3 -16
-4 -12 -1 -15 13 -12 25 5 50 -24 69 -83 9 -27 17 -49 19 -49 1 0 1 60 1 133
0 178 26 287 82 345 7 7 13 22 13 32 0 10 5 22 11 26 6 3 9 15 6 25 -3 10 -1
22 4 25 5 3 9 16 9 30 0 13 6 24 13 24 8 0 7 3 -3 10 -12 7 -12 12 4 29 14 15
16 28 11 48 -10 38 -6 147 6 151 5 2 9 10 9 18 0 8 5 14 10 14 6 0 43 27 84
60 41 33 79 60 85 60 6 0 11 4 11 8 0 13 65 41 110 48 22 4 43 11 46 15 3 5
18 9 35 9 16 0 29 4 29 9 0 4 12 9 28 9 15 0 41 2 59 3 18 1 39 -4 48 -11 23
-19 39 -22 115 -24 36 -1 81 -10 102 -19 21 -9 41 -17 45 -17 13 0 81 -67 84
-81 3 -21 -12 -69 -22 -69 -5 0 -9 -7 -9 -16 0 -8 -4 -13 -9 -9 -5 3 -12 1
-16 -5 -3 -5 -17 -10 -31 -10 -43 0 -27 -38 33 -77 13 -9 22 -21 19 -28 -6
-16 13 -35 36 -35 20 0 41 -40 28 -54 -13 -13 -90 -20 -90 -7 0 21 -19 11 -22
-11 -2 -17 -9 -23 -28 -22 -13 1 -33 -8 -43 -20 -13 -15 -20 -17 -24 -8 -3 9
-8 10 -18 2 -7 -6 -19 -9 -26 -8 -8 2 -15 -7 -17 -19 -4 -27 -32 -20 -32 9 0
17 -2 18 -15 4 -17 -17 -20 -46 -5 -46 6 0 10 -9 10 -19 0 -11 4 -22 8 -25 5
-3 7 -19 4 -36 -3 -21 0 -30 9 -30 11 0 15 -22 16 -90 1 -50 7 -99 13 -110 8
-14 8 -20 0 -20 -13 0 -3 -42 13 -51 5 -4 7 -18 3 -32 -4 -17 -1 -31 9 -40 13
-14 11 -16 -16 -22 -17 -4 -28 -9 -26 -12 3 -2 -6 -16 -19 -31 -27 -28 -55
-34 -92 -21 -26 10 -68 -6 -97 -37 -13 -13 -31 -21 -50 -20 -26 1 -30 5 -27
26 1 13 16 37 32 53 32 31 42 71 15 61 -8 -4 -16 -10 -16 -15 -1 -5 -2 -13 -3
-19 0 -5 -9 -19 -18 -30 -10 -11 -18 -24 -18 -29 0 -4 -9 -16 -20 -26 -11 -10
-20 -23 -20 -29 0 -6 4 -4 10 4 7 12 13 9 34 -13 14 -16 26 -33 26 -39 0 -6
15 -26 33 -45 17 -19 47 -49 65 -68 17 -18 32 -40 32 -49 0 -9 5 -16 10 -16
22 0 -56 -68 -82 -71 -33 -5 -39 12 -9 27 21 11 21 11 2 28 -12 11 -17 25 -13
39 3 13 1 18 -4 14 -9 -8 -10 -12 -13 -39 -1 -9 -4 -9 -13 0 -17 17 -49 15
-42 -2 8 -21 -28 -30 -43 -10 -10 13 -16 15 -24 7 -6 -6 -17 -9 -24 -6 -8 2
-23 0 -34 -7 -17 -9 -21 -8 -21 6 0 13 -6 15 -27 9 -24 -5 -26 -4 -12 7 32 27
71 90 62 99 -6 6 -14 0 -22 -14 -10 -18 -19 -23 -38 -19 -18 3 -24 1 -19 -7 4
-6 12 -9 17 -6 5 4 9 1 9 -5 0 -7 -9 -14 -20 -17 -11 -3 -20 -9 -20 -14 0 -18
-17 -8 -30 16 -8 15 -16 21 -20 15 -4 -6 -13 -10 -20 -8 -8 2 -16 -5 -18 -15
-3 -13 2 -16 19 -15 15 2 27 -5 35 -20 8 -17 13 -20 17 -10 3 7 6 2 6 -12 1
-17 -6 -29 -21 -35 -24 -11 -47 -60 -33 -72 4 -5 10 -2 12 5 3 6 12 12 21 12
14 0 14 -2 3 -9 -10 -7 -10 -10 -1 -13 24 -8 -18 -55 -55 -62 -37 -7 -45 -26
-21 -48 11 -10 11 -21 0 -63 -18 -65 -17 -72 4 -93 10 -10 24 -33 31 -52 30
-77 36 -90 46 -90 5 -1 -1 -7 -14 -14 l-24 -13 22 -22 c11 -11 17 -21 11 -21
-5 0 -7 -6 -4 -14 4 -10 -1 -14 -14 -13 -11 0 -18 6 -15 12 2 7 -3 17 -10 24
-13 10 -14 6 -11 -26 3 -35 2 -34 -11 12 -8 28 -20 70 -27 95 l-12 45 -7 -50
c-10 -66 -9 -250 1 -300 4 -22 8 -32 9 -23 0 9 5 20 11 23 5 3 9 -2 8 -12 -3
-38 3 -51 25 -58 16 -5 3 -10 -53 -19 -90 -14 -105 -22 -180 -91 -48 -44 -70
-56 -141 -78 -46 -14 -111 -31 -143 -38 -53 -12 -96 -39 -96 -61 0 -5 12 -13
27 -19 21 -8 35 -6 69 13 43 22 43 22 64 3 29 -27 59 -21 92 18 23 28 27 30
34 14 6 -17 -69 -252 -101 -313 -8 -16 -15 -34 -15 -41 0 -7 -6 -27 -14 -45
-8 -18 -21 -49 -29 -68 -37 -85 -23 -86 18 -2 25 52 45 97 45 102 0 4 6 13 14
19 8 7 17 24 21 38 9 37 94 160 143 209 23 22 39 44 35 47 -3 4 -1 7 5 7 5 0
18 -21 28 -47 20 -54 34 -74 41 -57 2 7 12 10 22 7 10 -3 22 0 25 5 3 6 24 8
46 5 27 -4 40 -2 40 6 0 7 5 9 10 6 6 -3 10 -1 10 5 0 6 12 10 27 8 27 -3 34
-13 104 -139 17 -31 44 -72 60 -90 l29 -34 -12 30 c-6 17 -15 34 -20 40 -15
17 -8 26 11 15 31 -16 51 -3 45 30 -6 27 10 50 24 35 3 -3 0 -10 -7 -14 -17
-11 2 -23 23 -15 10 4 18 -1 23 -12 4 -11 16 -27 27 -37 20 -18 21 -18 43 10
13 15 23 23 23 16 0 -6 -29 -40 -64 -76 -64 -64 -81 -93 -109 -179 -15 -47
-15 -48 5 -48 16 0 19 5 16 25 -3 14 -1 25 3 25 5 0 9 -4 9 -10 0 -5 7 -10 15
-10 8 0 15 -7 15 -15 0 -30 34 -12 45 23 8 27 20 20 20 -11 0 -13 6 -22 15
-22 8 0 14 5 13 11 -1 7 14 15 35 19 20 4 48 15 62 25 44 31 49 16 34 -95 -8
-54 -16 -108 -19 -120 -3 -11 2 -6 10 12 8 18 17 49 19 70 6 46 34 154 35 134
1 -8 4 -11 8 -8 3 4 13 1 21 -6 13 -10 15 -9 9 7 -5 12 -3 17 5 13 7 -2 19 2
26 9 7 8 9 14 5 14 -26 1 89 50 119 50 9 0 19 6 22 13 5 10 7 10 12 0 8 -18
25 -16 18 2 -4 8 -1 15 5 15 6 0 11 -6 11 -14 0 -15 16 -16 36 -3 21 12 33
-18 30 -69 -3 -27 -5 -49 -6 -49 -1 0 -3 -15 -5 -32 -4 -44 7 -41 29 7 10 22
21 40 26 40 4 0 10 8 14 18 13 41 52 86 66 77 5 -3 10 -1 10 5 0 19 53 91 61
83 4 -4 -3 -51 -16 -103 -47 -192 -94 -367 -123 -460 -26 -81 -38 -129 -57
-223 -6 -32 11 -9 23 30 6 21 30 99 54 173 23 74 43 137 44 140 14 66 57 190
65 190 3 0 4 15 2 33 -3 21 -1 28 5 19 9 -13 48 64 83 161 13 37 59 91 59 69
0 -7 -5 -12 -12 -12 -9 0 -9 -3 0 -12 7 -7 12 -24 12 -39 0 -15 7 -29 16 -33
22 -9 24 -8 24 9 0 9 9 15 24 15 13 0 27 7 30 16 4 11 14 15 31 12 14 -3 25
-1 25 4 0 4 11 13 25 20 17 8 34 33 55 84 32 78 38 108 18 101 -7 -2 -12 -11
-12 -19 1 -10 -6 -13 -22 -10 -16 3 -24 -1 -25 -9 -1 -8 -4 -3 -8 11 -4 14
-13 24 -19 22 -7 -1 -12 6 -12 16 0 10 -9 24 -20 32 -11 8 -20 20 -20 26 0 16
-102 109 -167 152 -29 19 -83 42 -120 52 l-68 18 38 16 c20 9 37 19 37 22 0 3
-5 2 -11 -2 -7 -4 -10 -1 -7 7 3 8 11 13 17 11 6 -1 11 5 11 13 0 15 16 20 53
17 20 -2 22 9 5 27 -11 11 -9 11 10 2 14 -8 22 -8 22 -1 0 5 5 10 10 10 6 0 8
-15 4 -40 -4 -27 -3 -40 5 -40 6 0 11 5 11 10 0 6 11 15 25 20 14 5 31 22 37
37 7 16 18 31 25 36 6 4 14 21 18 37 4 16 11 32 16 35 5 4 9 20 9 36 0 28 -1
29 -17 14 -15 -16 -17 -16 -25 0 -6 9 -7 23 -4 31 3 8 -1 14 -11 14 -12 0 -10
5 8 23 20 18 23 28 19 58 -6 32 -4 36 12 31 12 -3 18 1 18 11 0 22 -21 67 -32
67 -4 0 -8 14 -8 31 0 18 -10 52 -22 76 -20 39 -21 48 -10 86 7 23 27 96 44
163 l31 121 44 -1 c38 -1 49 4 74 32 33 36 40 63 9 32 -11 -11 -25 -20 -31
-20 -5 0 -7 -4 -4 -10 3 -5 -9 -3 -27 4 -41 18 -48 36 -13 36 20 0 26 4 21 15
-3 8 -1 15 5 15 6 0 8 9 4 20 -3 11 -2 20 4 20 5 0 13 9 16 20 3 11 13 20 21
20 8 0 14 5 14 10 0 6 11 15 25 22 15 7 26 22 30 42 8 39 32 93 46 101 6 4 8
-4 4 -22 -5 -25 -4 -25 11 7 35 74 25 218 -18 256 -34 31 -51 75 -64 164 -6
47 -15 99 -19 115 -5 23 -4 26 4 15 16 -23 14 3 -5 50 -11 27 -14 53 -9 82 16
107 17 179 1 219 -9 21 -13 39 -9 39 3 0 -3 10 -15 23 -21 23 -71 101 -102
161 -21 42 -172 171 -249 213 -36 20 -82 49 -101 64 -21 15 -61 32 -97 39 -35
7 -63 16 -63 20 0 18 -108 42 -155 34z m130 -884 c3 -5 1 -10 -4 -10 -6 0 -11
5 -11 10 0 6 2 10 4 10 3 0 8 -4 11 -10z m-205 -107 c-1 -27 -1 -27 -15 -9
-14 19 -12 36 6 36 5 0 9 -12 9 -27z m572 -304 c24 -13 28 -11 28 8 0 9 3 13
7 10 3 -4 6 -23 5 -42 -1 -19 3 -35 9 -35 6 0 7 -5 4 -10 -4 -6 -11 -8 -16 -4
-6 3 -17 -2 -24 -12 -12 -16 -17 -17 -34 -6 -19 11 -21 10 -21 -8 0 -13 -7
-20 -20 -20 -11 0 -20 -7 -20 -16 0 -8 -4 -13 -9 -10 -5 4 -12 0 -14 -6 -3 -7
-6 -2 -6 11 -1 24 -1 24 -19 5 -16 -16 -17 -21 -4 -30 12 -8 10 -14 -12 -35
-14 -13 -26 -30 -26 -36 0 -7 -4 -13 -10 -13 -5 0 -10 5 -10 11 0 5 -5 7 -10
4 -6 -4 -8 -11 -5 -16 10 -15 -12 -10 -29 6 -14 15 -58 35 -85 41 -8 1 -19 10
-23 19 -6 10 -17 14 -31 11 -12 -3 -16 -3 -9 0 17 8 15 31 -4 38 -11 4 -14 14
-9 34 4 20 1 33 -10 42 -8 7 -15 22 -15 34 1 19 2 19 11 4 5 -9 16 -15 23 -12
13 5 31 -24 21 -34 -3 -3 -5 0 -5 6 0 7 -4 12 -10 12 -5 0 -7 -7 -4 -15 9 -21
21 -19 45 9 16 19 26 22 47 17 29 -8 153 16 163 32 4 5 11 7 16 4 6 -4 19 0
29 8 19 14 51 11 86 -6z m329 -223 c-8 -13 -11 -28 -7 -34 3 -5 -6 -20 -19
-32 -30 -28 -32 -13 -5 42 11 23 20 49 20 57 0 11 3 12 12 3 9 -9 9 -17 -1
-36z m-91 -122 c0 -8 -4 -12 -10 -9 -5 3 -10 10 -10 16 0 5 5 9 10 9 6 0 10
-7 10 -16z m-911 -308 c-12 -10 -60 -16 -54 -6 3 5 18 10 32 10 15 0 24 -2 22
-4z m-409 -48 c0 -9 4 -8 10 2 5 8 10 12 10 8 0 -3 3 -13 6 -22 5 -12 0 -16
-19 -16 -16 0 -26 7 -30 20 -3 13 0 20 9 20 8 0 14 -6 14 -12z m208 -70 c-2
-6 -10 -14 -16 -16 -7 -2 -10 2 -6 12 7 18 28 22 22 4z m262 -40 c0 -10 2 -10
9 0 13 21 64 4 58 -19 -3 -11 -2 -17 2 -15 4 3 13 1 21 -5 13 -7 12 -9 -2 -9
-10 0 -15 -5 -12 -13 6 -16 -34 -39 -67 -39 -13 0 -48 3 -78 7 l-54 8 5 -26
c6 -31 1 -33 -30 -11 -18 13 -21 19 -11 30 6 8 9 17 6 20 -11 12 21 34 39 27
13 -5 16 -3 11 10 -4 12 -1 15 14 12 15 -3 19 0 16 9 -7 19 -3 21 38 24 23 2
35 -2 35 -10z m-285 -89 c12 -18 -3 -22 -20 -5 -14 14 -14 16 -1 16 8 0 18 -5
21 -11z m65 -49 c0 -5 -9 -10 -20 -10 -11 0 -20 5 -20 10 0 6 9 10 20 10 11 0
20 -4 20 -10z m965 -120 c3 -5 -1 -10 -9 -10 -9 0 -16 5 -16 10 0 6 4 10 9 10
6 0 13 -4 16 -10z m-1245 -20 c0 -5 -4 -10 -10 -10 -5 0 -10 5 -10 10 0 6 5
10 10 10 6 0 10 -4 10 -10z m20 -161 c0 -14 -49 4 -54 19 -3 10 -9 23 -12 31
-4 8 10 1 30 -15 20 -16 36 -32 36 -35z m0 -34 c0 -8 -4 -15 -10 -15 -5 0 -10
7 -10 15 0 8 5 15 10 15 6 0 10 -7 10 -15z m-123 -27 c-3 -7 -5 -2 -5 12 0 14
2 19 5 13 2 -7 2 -19 0 -25z m171 -46 c6 -14 10 -28 7 -30 -8 -9 -33 19 -44
48 -9 26 -8 28 7 19 10 -6 23 -23 30 -37z m59 15 c7 -5 10 -14 7 -19 -6 -10
-44 19 -44 34 0 9 14 4 37 -15z m-193 -102 c45 -19 70 -56 64 -95 -3 -19 0
-30 8 -30 6 0 16 -6 22 -13 16 -19 -32 -20 -69 -2 -23 12 -29 22 -29 48 0 18
-9 49 -19 70 -10 20 -18 37 -16 37 1 0 19 -7 39 -15z m956 -109 c0 -3 -4 -8
-10 -11 -5 -3 -10 -1 -10 4 0 6 5 11 10 11 6 0 10 -2 10 -4z m-15 -47 c-4 -5
-12 -9 -18 -8 -9 0 -8 2 1 6 6 2 9 10 6 15 -4 7 -2 8 5 4 6 -4 9 -12 6 -17z
m-60 -29 c-10 -11 -25 -20 -34 -20 -12 0 -9 6 9 20 33 26 48 26 25 0z m-1420
-30 c-10 -11 -21 -17 -24 -14 -3 3 3 12 13 20 28 20 32 17 11 -6z m780 -36
c23 -21 32 -33 20 -29 -11 4 -35 11 -52 17 -36 10 -36 9 -27 32 8 22 13 20 59
-20z m543 -14 c-21 -17 -56 -49 -78 -70 -23 -22 -48 -40 -55 -40 -8 0 -31 -11
-51 -25 -21 -14 -49 -28 -63 -32 -14 -3 -33 -11 -41 -17 -21 -17 -72 -38 -66
-27 3 5 -10 28 -29 52 -30 39 -38 69 -14 54 5 -4 9 -1 9 4 0 6 -6 11 -12 12
-7 0 2 5 21 11 23 6 37 6 44 -1 16 -16 27 -13 21 4 -7 17 11 21 21 5 3 -5 18
-10 32 -10 22 0 24 2 13 15 -11 14 -10 14 12 6 13 -5 30 -6 36 -2 7 4 27 6 44
4 43 -3 84 13 132 54 22 18 44 33 50 33 6 0 -6 -14 -26 -30z m-324 -382 c24
-33 20 -65 -10 -84 -55 -36 -116 26 -80 81 21 33 69 34 90 3z"/>
<path d="M3755 5130 c-3 -5 -2 -10 4 -10 5 0 13 5 16 10 3 6 2 10 -4 10 -5 0
-13 -4 -16 -10z"/>
<path d="M2970 3770 c0 -5 5 -10 10 -10 6 0 10 5 10 10 0 6 -4 10 -10 10 -5 0
-10 -4 -10 -10z"/>
<path d="M3390 3439 c0 -5 5 -7 10 -4 6 3 10 8 10 11 0 2 -4 4 -10 4 -5 0 -10
-5 -10 -11z"/>
<path d="M3055 5790 c3 -5 8 -10 11 -10 2 0 4 5 4 10 0 6 -5 10 -11 10 -5 0
-7 -4 -4 -10z"/>
<path d="M3236 5581 c-7 -11 -110 -26 -158 -22 -36 3 -75 -15 -110 -50 -9 -9
-22 -19 -28 -21 -7 -2 -13 -27 -15 -56 -1 -29 -8 -59 -15 -67 -10 -12 -9 -22
4 -50 15 -31 21 -35 56 -35 26 0 40 -5 40 -13 0 -7 21 -19 46 -26 36 -11 57
-11 95 -3 84 20 119 38 120 64 0 22 1 22 9 3 5 -11 9 -14 9 -7 1 6 8 12 16 12
8 0 17 11 21 25 3 14 10 25 16 25 5 0 6 -4 3 -10 -3 -5 1 -10 9 -10 9 0 16 -6
16 -12 0 -7 11 0 24 16 19 24 22 39 19 82 -2 31 1 55 7 59 8 5 6 13 -5 25 -9
10 -14 24 -10 29 11 19 25 12 25 -12 0 -32 9 -39 27 -21 17 17 10 44 -11 44
-7 0 -17 7 -20 16 -5 13 -9 14 -21 4 -12 -10 -23 -9 -55 4 -44 17 -106 21
-114 7z m-104 -97 c36 -19 28 -27 -37 -39 -50 -9 -125 -42 -125 -55 0 -6 -7
-10 -15 -10 -53 0 70 115 128 119 10 0 32 -6 49 -15z m1 -61 c-7 -2 -19 -2
-25 0 -7 3 -2 5 12 5 14 0 19 -2 13 -5z m54 -109 c-3 -3 -12 -4 -19 -1 -8 3
-5 6 6 6 11 1 17 -2 13 -5z"/>
<path d="M2750 4988 c0 -7 5 -20 10 -28 8 -12 10 -9 10 13 0 15 -4 27 -10 27
-5 0 -10 -6 -10 -12z"/>
<path d="M4506 4963 c-26 -76 -33 -102 -26 -98 11 7 44 105 37 111 -2 3 -7 -3
-11 -13z"/>
<path d="M2760 4918 c0 -7 5 -20 10 -28 8 -12 10 -11 10 7 0 12 -4 25 -10 28
-5 3 -10 0 -10 -7z"/>
<path d="M3158 4917 c-35 -10 -52 -27 -27 -27 5 0 7 -4 4 -10 -3 -5 0 -10 9
-10 8 0 17 -6 20 -12 3 -7 3 -3 0 10 -3 14 -1 22 8 22 8 0 21 9 31 20 19 22
13 23 -45 7z"/>
<path d="M3084 4876 c-3 -8 -16 -17 -30 -20 -23 -6 -34 -26 -14 -26 14 0 79
34 80 41 0 14 -31 18 -36 5z"/>
<path d="M3350 4790 c0 -5 5 -10 11 -10 5 0 7 5 4 10 -3 6 -8 10 -11 10 -2 0
-4 -4 -4 -10z"/>
<path d="M3372 4728 c7 -19 38 -22 38 -4 0 10 -9 16 -21 16 -12 0 -19 -5 -17
-12z"/>
<path d="M2795 4670 c-18 -8 -17 -9 8 -9 16 -1 26 3 22 9 -3 6 -7 10 -8 9 -1
0 -11 -4 -22 -9z"/>
<path d="M2930 4586 c0 -17 27 -29 35 -16 4 6 3 15 0 20 -9 15 -35 12 -35 -4z"/>
<path d="M4300 4110 c0 -5 5 -10 11 -10 5 0 7 5 4 10 -3 6 -8 10 -11 10 -2 0
-4 -4 -4 -10z"/>
<path d="M4255 4040 c3 -5 10 -10 16 -10 5 0 9 5 9 10 0 6 -7 10 -16 10 -8 0
-12 -4 -9 -10z"/>
<path d="M2663 4004 c-40 -19 -78 -44 -84 -55 -10 -19 -9 -20 13 -14 12 4 27
11 33 16 5 5 17 9 26 9 17 0 111 79 94 79 -5 1 -43 -15 -82 -35z"/>
<path d="M4399 3962 c11 -21 27 -44 36 -52 9 -7 26 -34 37 -59 14 -30 23 -40
26 -29 4 21 -20 69 -66 131 -43 57 -60 61 -33 9z"/>
<path d="M2439 3826 c6 -7 8 -16 5 -19 -3 -3 10 -1 30 5 42 13 42 13 -7 21
-31 5 -36 3 -28 -7z"/>
<path d="M2397 3757 c-11 -29 -9 -43 4 -30 6 6 9 19 7 29 -3 18 -4 18 -11 1z"/>
<path d="M2379 3683 l-34 -38 38 34 c34 33 42 41 34 41 -2 0 -19 -17 -38 -37z"/>
<path d="M4480 3710 c0 -6 7 -10 15 -10 8 0 15 2 15 4 0 2 -7 6 -15 10 -8 3
-15 1 -15 -4z"/>
<path d="M2332 3627 c-6 -7 -10 -20 -8 -30 4 -32 14 -28 18 7 5 41 4 41 -10
23z"/>
<path d="M4487 3603 c-3 -16 -1 -32 4 -37 5 -6 9 4 9 27 0 44 -6 48 -13 10z"/>
<path d="M2143 3452 c-48 -71 -93 -213 -112 -352 -5 -36 -20 -101 -33 -145
-14 -44 -28 -109 -31 -145 -3 -43 -2 -55 3 -37 5 16 13 34 18 40 6 7 13 35 17
62 4 28 14 65 21 84 8 18 21 84 29 145 19 144 70 306 96 306 5 0 7 5 4 10 -3
6 0 13 9 16 9 3 14 18 14 35 -1 16 -1 29 -2 29 -1 0 -16 -22 -33 -48z"/>
<path d="M5123 3232 c-21 -22 -69 -100 -107 -173 -38 -74 -89 -166 -112 -206
-23 -39 -45 -82 -49 -95 -4 -13 -20 -50 -35 -83 -15 -33 -42 -94 -60 -135 -42
-97 -172 -361 -185 -378 -29 -38 -48 -53 -60 -48 -7 2 -16 -2 -19 -11 -9 -22
1 -28 19 -13 18 15 31 7 18 -12 -5 -8 -28 -13 -60 -13 -52 -1 -73 11 -31 17
11 2 22 10 24 18 2 15 13 63 35 150 6 25 15 66 21 92 6 26 14 45 18 43 5 -3 6
4 3 16 -4 12 0 25 8 29 17 11 8 21 -20 23 -12 1 -20 6 -18 12 2 5 14 9 25 7
14 -2 22 2 22 11 0 24 -33 14 -57 -17 -13 -17 -23 -43 -23 -58 0 -16 -4 -36
-10 -46 -17 -30 -90 -279 -90 -307 0 -3 5 -3 10 0 6 3 10 2 10 -3 0 -9 -116
-46 -260 -83 -48 -12 -119 -22 -164 -23 -72 -1 -79 1 -81 19 -2 32 -37 159
-47 170 -4 5 -8 19 -8 32 0 13 -4 23 -10 23 -12 0 -12 -2 1 -37 6 -15 15 -50
21 -78 5 -27 13 -67 18 -87 4 -21 5 -38 2 -38 -2 0 -23 5 -46 12 -65 18 -75
31 -72 97 2 31 7 68 11 81 13 44 -12 9 -34 -48 -25 -64 -26 -88 -5 -96 9 -4
14 -9 11 -13 -4 -3 -13 0 -21 6 -8 7 -20 10 -26 6 -16 -10 -12 -55 6 -62 13
-5 15 -16 10 -58 -4 -39 -2 -57 11 -75 9 -13 11 -20 4 -16 -10 6 -11 -2 -6
-38 5 -31 4 -46 -4 -46 -6 0 -11 -14 -11 -31 0 -26 -3 -31 -20 -26 -11 3 -23
1 -26 -4 -3 -6 -13 -9 -22 -7 -10 1 -29 -1 -44 -5 -21 -6 -28 -14 -28 -32 0
-21 4 -24 23 -20 16 4 24 0 32 -17 13 -30 51 -48 104 -48 41 0 156 -16 300
-41 35 -7 138 -12 229 -13 l166 -1 7 -25 c4 -14 8 -18 9 -10 0 8 5 38 10 65
42 225 56 340 40 330 -26 -16 20 158 66 246 21 41 101 166 124 194 9 11 22 39
30 62 7 23 17 40 23 36 6 -3 7 -2 4 4 -9 14 35 145 87 260 24 54 49 117 55
139 6 22 22 51 36 64 14 13 59 89 101 169 42 80 80 148 85 149 5 2 9 8 9 14 0
6 16 33 36 60 19 28 33 52 31 55 -3 3 -23 -13 -44 -35z m-648 -1242 c3 -5 1
-10 -4 -10 -6 0 -11 5 -11 10 0 6 2 10 4 10 3 0 8 -4 11 -10z m-8 -232 c-3 -8
-6 -5 -6 6 -1 11 2 17 5 13 3 -3 4 -12 1 -19z m-174 -163 c-3 -9 -8 -14 -10
-11 -3 3 -2 9 2 15 9 16 15 13 8 -4z"/>
<path d="M5399 3213 c-42 -45 -70 -72 -147 -140 -20 -18 -34 -35 -31 -38 3 -3
30 8 60 24 41 21 65 44 98 92 24 35 52 70 62 77 20 14 25 32 10 32 -5 0 -28
-21 -52 -47z"/>
<path d="M1983 3082 c-20 -13 -33 -61 -32 -120 0 -62 1 -60 37 47 21 63 19 88
-5 73z"/>
<path d="M5371 3058 c-30 -11 -69 -29 -85 -39 -17 -10 -47 -26 -66 -35 -61
-30 -120 -83 -120 -109 0 -15 -30 -54 -94 -120 -55 -57 -92 -104 -89 -112 3
-7 -1 -13 -9 -13 -21 0 -40 -38 -29 -58 6 -9 11 -12 11 -6 0 6 46 59 103 117
115 119 157 166 157 177 0 5 15 18 33 29 18 11 46 31 62 45 17 14 33 26 37 26
4 0 13 6 20 13 7 7 39 30 71 51 89 59 88 67 -2 34z"/>
<path d="M1840 2954 c0 -28 30 -127 37 -121 6 7 -15 105 -28 127 -7 12 -8 11
-9 -6z"/>
<path d="M2411 2947 c-13 -21 -12 -21 5 -5 10 10 16 20 13 22 -3 3 -11 -5 -18
-17z"/>
<path d="M3466 2809 c-2 -8 -7 -52 -11 -99 -3 -47 -11 -104 -17 -128 -6 -23
-8 -45 -5 -48 10 -11 28 75 37 179 8 95 7 129 -4 96z"/>
<path d="M1900 2750 c0 -8 5 -22 10 -30 9 -13 10 -13 10 0 0 8 -5 22 -10 30
-9 13 -10 13 -10 0z"/>
<path d="M2090 2733 c-7 -18 -16 -33 -21 -33 -4 0 -6 -7 -3 -15 4 -11 12 -4
25 22 11 21 17 42 15 48 -2 5 -9 -5 -16 -22z"/>
<path d="M1986 2678 c-18 -45 -12 -159 13 -235 11 -34 25 -100 31 -145 12 -89
49 -161 86 -165 11 -2 13 0 6 3 -6 3 -9 10 -6 15 3 6 8 39 11 74 4 55 3 65
-11 65 -9 0 -16 -6 -16 -13 0 -7 -6 -22 -14 -33 -13 -17 -14 -15 -10 25 3 27
0 54 -7 69 -10 18 -10 27 -1 43 10 16 10 19 -3 19 -8 0 -15 9 -15 20 0 11 -5
20 -11 20 -5 0 -7 -4 -4 -10 3 -5 2 -10 -4 -10 -16 0 -26 68 -25 183 0 59 -2
107 -3 107 -2 0 -10 -15 -17 -32z"/>
<path d="M3856 2617 c-10 -54 -17 -100 -14 -102 8 -9 39 132 36 166 -2 25 -8
9 -22 -64z"/>
<path d="M1916 2678 c14 -46 34 -87 45 -94 8 -4 9 -3 5 5 -4 6 -9 22 -12 36
-2 13 -9 36 -14 50 -12 31 -34 34 -24 3z"/>
<path d="M5375 2610 c-3 -5 -1 -10 4 -10 6 0 11 5 11 10 0 6 -2 10 -4 10 -3 0
-8 -4 -11 -10z"/>
<path d="M4830 2529 c0 -11 5 -17 10 -14 6 3 10 13 10 21 0 8 -4 14 -10 14 -5
0 -10 -9 -10 -21z"/>
<path d="M5705 2513 c-10 -15 -32 -41 -48 -56 -16 -15 -27 -30 -25 -33 8 -7
73 56 88 84 17 34 6 37 -15 5z"/>
<path d="M2036 2497 c-8 -32 -8 -37 7 -37 14 0 21 46 8 54 -5 3 -11 -4 -15
-17z"/>
<path d="M5741 2481 c-12 -16 -21 -34 -21 -40 0 -6 -6 -11 -14 -11 -8 0 -29
-19 -48 -41 -18 -23 -39 -47 -45 -54 -7 -8 -13 -21 -13 -29 0 -9 -4 -16 -10
-16 -5 0 -7 -7 -4 -15 4 -8 -1 -17 -10 -21 -9 -3 -16 -12 -16 -20 0 -8 -8 -22
-18 -32 -21 -21 -44 -80 -37 -92 3 -5 1 -10 -4 -12 -4 -1 -11 -14 -15 -28 -4
-14 -4 -20 1 -15 4 6 21 17 37 25 29 15 76 75 76 97 0 7 3 12 8 12 29 -5 40 2
34 23 -5 22 -5 22 21 5 27 -18 37 -11 15 11 -9 9 -7 12 9 12 21 0 38 24 28 40
-3 5 -1 11 4 14 5 4 12 2 16 -4 8 -13 35 -13 35 0 0 6 -11 15 -25 20 -22 8
-24 13 -15 30 6 11 13 20 16 20 3 0 2 -4 -1 -10 -3 -5 -3 -16 2 -22 5 -8 10 2
14 27 4 23 3 45 -3 53 -7 8 -7 12 0 12 5 0 10 20 10 45 1 25 -1 45 -3 45 -2 0
-13 -13 -24 -29z"/>
<path d="M3402 2430 c0 -14 2 -19 5 -12 2 6 2 18 0 25 -3 6 -5 1 -5 -13z"/>
<path d="M5475 2391 c-30 -16 -57 -43 -50 -50 2 -2 21 7 42 20 21 13 41 23 46
21 4 -1 7 2 7 7 0 18 -15 18 -45 2z"/>
<path d="M5590 2395 c-11 -13 -10 -14 4 -9 9 3 16 10 16 15 0 13 -6 11 -20 -6z"/>
<path d="M1570 2376 c0 -2 7 -7 16 -10 8 -3 12 -2 9 4 -6 10 -25 14 -25 6z"/>
<path d="M3063 2323 c-7 -24 -8 -45 -2 -60 13 -34 11 -43 -5 -37 -7 3 -16 -2
-19 -10 -4 -10 -13 -13 -23 -9 -12 4 -15 3 -10 -6 4 -6 3 -18 -4 -25 -13 -17
-3 -63 15 -74 19 -10 7 -59 -16 -65 -10 -3 -17 0 -16 7 1 6 -9 10 -25 8 -21
-2 -28 2 -28 14 0 12 -6 15 -22 10 -13 -3 -26 -6 -30 -6 -4 0 -5 -7 -2 -15 4
-10 -3 -18 -20 -25 -17 -6 -24 -14 -20 -25 5 -11 2 -14 -10 -9 -12 5 -16 0
-16 -18 0 -13 5 -29 11 -35 7 -7 6 -15 -5 -26 -9 -8 -13 -23 -10 -31 3 -9 2
-16 -3 -16 -6 0 -10 -12 -9 -27 1 -16 6 -27 11 -25 6 2 9 12 8 23 -2 12 3 19
15 20 10 0 12 3 5 6 -15 5 -18 33 -4 33 21 0 23 -61 3 -100 -11 -24 -16 -43
-10 -46 5 -3 7 -29 3 -58 -10 -88 -8 -107 13 -129 18 -17 19 -22 7 -31 -10 -8
-12 -15 -5 -26 8 -12 12 -12 18 -2 7 11 11 10 20 -1 10 -11 6 -13 -18 -12 -16
1 -35 -2 -42 -6 -7 -5 29 -9 84 -9 54 0 100 4 103 10 4 6 -6 10 -22 10 -20 0
-24 3 -14 9 8 5 20 7 28 4 7 -3 13 0 13 6 0 6 7 8 16 4 13 -5 15 3 12 48 -3
48 -5 54 -25 54 -13 0 -27 5 -32 10 -12 13 5 55 22 55 7 0 23 9 35 20 24 23
31 85 10 93 -8 3 -6 6 4 6 29 2 42 73 41 231 -2 176 -8 308 -14 314 -2 3 -10
-11 -16 -31z m-178 -723 c3 -5 1 -10 -4 -10 -6 0 -11 5 -11 10 0 6 2 10 4 10
3 0 8 -4 11 -10z m119 -16 c8 -20 8 -24 -1 -24 -17 0 -35 19 -29 29 10 16 23
14 30 -5z m-24 -38 c0 -11 -19 -15 -25 -6 -3 5 1 10 9 10 9 0 16 -2 16 -4z"/>
<path d="M3366 2259 c-3 -35 -8 -122 -11 -194 -4 -71 -13 -159 -20 -195 -7
-36 -12 -66 -10 -68 15 -16 34 113 51 348 2 25 7 69 10 98 4 32 2 58 -4 64 -7
7 -12 -11 -16 -53z"/>
<path d="M4391 2304 c0 -11 3 -14 6 -6 3 7 2 16 -1 19 -3 4 -6 -2 -5 -13z"/>
<path d="M3802 2280 c0 -14 2 -19 5 -12 2 6 2 18 0 25 -3 6 -5 1 -5 -13z"/>
<path d="M4382 2250 c0 -14 2 -19 5 -12 2 6 2 18 0 25 -3 6 -5 1 -5 -13z"/>
<path d="M3281 2240 c-13 -11 -31 -20 -40 -20 -13 0 -14 -2 -2 -9 15 -10 56
13 65 37 7 16 6 15 -23 -8z"/>
<path d="M4370 2211 c0 -7 -7 -19 -16 -28 -11 -11 -12 -19 -5 -26 17 -17 13
-27 -13 -27 -14 0 -30 -10 -41 -26 -10 -15 -22 -23 -31 -20 -9 3 -14 -1 -14
-14 0 -25 -17 -35 -36 -19 -8 6 -17 9 -21 5 -3 -3 -2 -6 3 -6 5 0 10 -9 11
-19 2 -18 -3 -19 -50 -15 -35 4 -48 2 -38 -4 8 -6 10 -15 6 -23 -6 -9 -3 -10
11 -4 10 4 30 9 44 12 79 13 163 39 170 53 11 20 32 161 25 168 -3 3 -5 0 -5
-7z"/>
<path d="M1900 2145 c46 -52 60 -63 60 -48 0 5 -15 23 -32 39 -60 55 -73 59
-28 9z"/>
<path d="M2960 2150 c0 -5 5 -10 10 -10 6 0 10 5 10 10 0 6 -4 10 -10 10 -5 0
-10 -4 -10 -10z"/>
<path d="M2146 2084 c4 -11 11 -24 15 -30 22 -28 39 -96 28 -113 -9 -14 -10
-14 -5 2 3 11 2 15 -4 12 -6 -3 -10 -1 -10 6 0 7 -2 10 -5 8 -8 -9 7 -48 21
-51 8 -2 10 -8 6 -15 -6 -9 -15 -5 -36 13 -20 19 -35 25 -56 22 -16 -3 -32 0
-34 6 -3 6 -12 3 -21 -9 -9 -11 -23 -19 -32 -17 -14 3 -14 0 2 -25 10 -15 14
-25 10 -21 -4 4 -14 1 -21 -7 -19 -18 -18 -31 1 -15 8 6 20 10 27 7 18 -6 48
11 48 27 0 8 11 14 26 14 14 0 22 -3 17 -7 -17 -11 -21 -50 -7 -62 19 -15 18
-29 -3 -45 -16 -11 -16 -13 10 -25 29 -13 34 -24 16 -34 -6 -4 -17 1 -24 11
-13 18 -14 18 -8 -3 3 -13 9 -23 13 -23 4 0 10 -9 13 -20 3 -14 14 -20 32 -20
14 0 24 -4 21 -9 -10 -15 5 -43 20 -37 9 3 11 0 7 -11 -5 -13 -2 -15 17 -10
30 8 69 -11 49 -24 -8 -5 -16 -3 -21 4 -9 15 -20 4 -13 -14 3 -8 20 -16 37
-17 18 -2 55 -9 83 -17 43 -12 177 -31 338 -49 27 -3 47 -2 47 4 0 6 -5 10
-11 10 -24 0 -42 34 -46 88 -4 58 -26 122 -43 122 -6 0 -10 9 -10 20 0 11 -7
20 -15 20 -8 0 -15 5 -15 10 0 6 5 10 10 10 6 0 10 5 10 11 0 5 -5 7 -10 4 -6
-3 -14 5 -19 18 -12 30 -27 41 -36 27 -5 -7 -12 -5 -20 7 -21 28 -40 1 -40
-56 l1 -48 -19 24 c-14 18 -16 27 -8 37 6 7 9 24 7 37 -3 13 -5 27 -5 32 -1 4
-10 7 -21 7 -11 0 -20 5 -20 11 0 6 7 9 15 5 21 -8 45 3 45 20 0 16 -26 19
-35 4 -5 -8 -11 -7 -21 1 -12 10 -16 8 -21 -9 -6 -24 -23 -30 -23 -9 0 9 -11
12 -34 9 -28 -3 -35 0 -41 18 -4 11 -22 28 -41 37 -18 9 -36 24 -39 34 -3 9
-17 20 -30 23 -16 4 -25 14 -27 32 -2 15 -13 33 -26 42 -21 14 -22 13 -16 -4z
m107 -239 c2 -13 -1 -29 -7 -35 -8 -8 -7 -10 5 -5 13 5 16 -1 16 -33 0 -36 12
-57 61 -108 9 -10 10 -18 1 -38 -9 -20 -9 -29 1 -41 8 -10 9 -15 1 -15 -13 0
-51 36 -51 49 0 5 -9 7 -20 4 -12 -3 -20 -2 -19 3 3 14 -13 48 -30 62 -14 11
-14 11 2 6 13 -5 17 -1 17 16 0 11 -4 19 -9 15 -5 -3 -13 5 -16 17 -4 13 -14
31 -23 41 -15 17 -42 83 -37 89 2 2 26 1 53 0 43 -3 51 -7 55 -27z m293 -95
c-2 -16 -1 -28 3 -27 3 1 7 0 9 -3 6 -8 -9 -60 -17 -60 -16 0 -26 56 -17 92
11 43 27 41 22 -2z"/>
<path d="M1730 2068 c0 -9 5 -20 11 -23 17 -11 20 0 4 21 -13 17 -14 17 -15 2z"/>
<path d="M1305 2020 c10 -11 20 -20 22 -20 2 0 -2 9 -9 20 -7 11 -17 20 -22
20 -5 0 -1 -9 9 -20z"/>
<path d="M1766 2020 c4 -8 24 -36 43 -62 78 -102 100 -137 156 -241 41 -79 61
-107 72 -103 8 3 17 6 19 6 10 0 2 19 -16 40 -11 12 -17 26 -15 30 3 5 1 10
-5 12 -5 1 -22 22 -37 44 -84 126 -128 185 -174 234 -28 30 -47 48 -43 40z"/>
<path d="M3770 2006 c0 -9 5 -16 10 -16 6 0 10 4 10 9 0 6 -4 13 -10 16 -5 3
-10 -1 -10 -9z"/>
<path d="M1551 1995 c15 -34 46 -75 57 -75 9 0 7 8 -7 28 -21 30 -57 64 -50
47z"/>
<path d="M1380 1936 c0 -9 5 -16 10 -16 6 0 10 4 10 9 0 6 -4 13 -10 16 -5 3
-10 -1 -10 -9z"/>
<path d="M5741 1898 c-1 -21 -6 -28 -21 -28 -11 0 -20 5 -20 11 0 5 -5 7 -11
3 -8 -5 -8 -9 1 -14 9 -6 9 -9 1 -15 -7 -4 -9 -19 -6 -38 5 -24 1 -38 -14 -56
-23 -27 -26 -37 -11 -46 6 -4 8 -11 4 -16 -3 -5 -10 -7 -15 -4 -5 3 -7 0 -5
-7 3 -7 7 -33 10 -58 5 -33 3 -41 -4 -30 -9 13 -12 13 -21 -4 -21 -34 -49 -56
-74 -56 -19 0 -25 -5 -25 -22 0 -17 -3 -19 -9 -9 -6 9 -11 10 -15 2 -4 -6 -4
-11 0 -11 3 0 1 -7 -6 -15 -10 -13 -15 -13 -21 -3 -5 9 -11 4 -18 -15 -6 -15
-13 -27 -16 -27 -4 0 -4 4 0 9 10 17 -16 23 -33 8 -9 -8 -26 -17 -37 -19 -13
-2 -21 -12 -23 -31 -3 -27 -16 -35 -27 -17 -7 11 -37 1 -48 -17 -4 -7 -17 -13
-27 -13 -10 0 -23 -6 -27 -13 -4 -8 -17 -17 -28 -21 -18 -7 -18 -8 6 -29 45
-40 132 -147 125 -154 -3 -4 -12 0 -19 9 -8 11 -23 14 -48 11 -34 -5 -35 -6
-32 -40 3 -46 -3 -56 -27 -41 -15 10 -26 9 -53 -4 -24 -11 -38 -13 -51 -6 -20
11 -37 1 -17 -11 10 -7 10 -9 -2 -14 -8 -3 -19 -1 -24 4 -11 11 -113 -17 -113
-32 0 -5 -12 -14 -26 -19 -20 -8 -24 -13 -15 -24 15 -18 4 -26 -30 -19 -18 3
-29 1 -29 -6 0 -6 5 -11 10 -11 19 0 10 -39 -10 -45 -11 -3 -20 -13 -20 -22 0
-11 -3 -13 -12 -5 -21 17 -92 23 -138 13 -37 -8 -43 -7 -47 9 -3 11 -14 18
-30 18 -14 0 -28 5 -32 11 -4 6 -15 9 -23 6 -9 -4 -18 0 -22 10 -4 10 -16 15
-38 14 -41 -3 -62 4 -173 56 -132 62 -154 64 -45 4 52 -29 109 -59 126 -68 18
-9 39 -30 49 -47 17 -31 17 -32 -10 -62 -15 -17 -38 -33 -53 -37 -14 -3 -42
-22 -61 -41 -30 -29 -37 -32 -39 -17 -6 30 -22 39 -22 12 0 -19 -2 -21 -10 -9
-8 13 -12 12 -25 -7 -13 -18 -25 -22 -56 -21 -24 1 -44 -4 -49 -11 -5 -10 -9
-10 -11 -2 -3 7 -18 -7 -35 -31 -26 -37 -39 -46 -95 -61 -35 -10 -72 -26 -82
-34 -13 -12 -23 -14 -40 -6 -12 5 -49 8 -82 5 -33 -3 -70 -5 -82 -6 -13 0 -23
-4 -23 -8 0 -4 -8 -6 -17 -6 -10 1 -30 -2 -45 -5 -16 -4 -28 -4 -28 0 0 10
-101 10 -116 1 -7 -4 -17 -2 -23 6 -7 8 -27 14 -47 14 -19 0 -40 4 -47 10 -6
5 -24 12 -39 16 -16 3 -28 11 -28 16 0 5 -7 7 -15 4 -21 -8 -18 16 5 46 11 14
20 31 20 38 0 6 7 12 15 12 8 0 15 5 15 11 0 7 10 9 25 5 14 -4 25 -2 25 3 0
6 16 13 35 17 19 3 35 12 35 19 0 12 61 31 88 26 6 -1 12 5 12 13 0 8 13 17
30 21 17 4 30 11 30 17 0 6 6 6 15 -2 11 -9 15 -9 15 -1 0 7 5 9 12 5 6 -4 8
-3 4 4 -9 15 62 82 120 113 27 14 81 37 119 49 39 13 75 28 80 33 6 7 4 8 -7
4 -9 -3 -40 6 -70 21 -39 19 -74 28 -138 32 -47 3 -87 2 -88 -2 -2 -5 -7 -6
-12 -3 -10 6 -151 6 -225 1 -27 -2 -93 -7 -145 -9 -52 -3 -103 -8 -112 -12 -9
-4 -26 -1 -38 5 -18 10 -24 9 -31 -1 -6 -10 -11 -10 -22 0 -11 8 -17 9 -22 1
-5 -7 -11 -8 -19 -1 -6 6 -21 10 -31 10 -40 1 -100 14 -106 23 -3 5 -13 6 -22
2 -9 -3 -14 -10 -11 -15 3 -5 -6 -9 -20 -9 -14 0 -28 5 -31 10 -3 6 -17 10
-31 10 -13 0 -24 -4 -24 -10 0 -19 -17 -10 -28 16 -7 14 -17 22 -22 19 -6 -4
-8 -11 -5 -16 9 -14 -43 -30 -99 -30 -81 0 -109 -3 -144 -18 -25 -11 -35 -11
-47 -1 -12 10 -16 9 -20 -3 -5 -11 -17 -13 -52 -9 -33 3 -44 2 -39 -7 4 -6 1
-11 -9 -11 -12 0 -15 6 -10 23 4 13 3 17 -2 10 -5 -7 -22 -14 -39 -16 -16 -2
-36 -7 -43 -12 -9 -5 -12 -4 -8 2 8 13 -295 12 -304 -1 -4 -5 -20 -2 -35 6
-20 9 -40 11 -64 6 -19 -4 -47 -5 -62 -2 -14 3 -29 0 -33 -6 -3 -5 -18 -11
-33 -11 -71 -2 -131 1 -178 6 -39 5 -54 3 -66 -9 -9 -8 -18 -12 -22 -9 -10 10
-36 -18 -37 -41 -1 -19 -2 -18 -9 4 -7 23 -8 23 -10 -10 -1 -19 -2 -38 -2 -41
1 -4 -8 -9 -18 -12 -14 -4 -20 0 -20 11 0 10 -3 13 -8 7 -8 -12 -127 -14 -138
-3 -12 13 -44 9 -44 -5 0 -7 -9 -13 -20 -14 -17 -2 -20 2 -14 20 25 83 99 160
407 425 98 83 175 152 172 152 -7 0 -196 -138 -205 -149 -3 -4 -34 -28 -70
-53 -36 -26 -72 -54 -81 -63 -9 -8 -20 -15 -25 -16 -17 -1 -173 -186 -209
-245 -42 -73 -54 -86 -66 -79 -5 4 -9 2 -9 -4 0 -5 -10 -11 -23 -13 -18 -2
-22 -9 -20 -32 1 -16 5 -37 9 -45 4 -9 8 -20 10 -26 1 -5 10 -37 20 -70 19
-68 24 -75 78 -105 33 -18 339 -95 464 -117 18 -3 35 -9 37 -13 3 -4 12 -52
21 -106 8 -55 21 -125 29 -156 13 -54 12 -61 -11 -125 -13 -37 -24 -76 -24
-85 0 -17 133 -18 2665 -18 l2665 0 0 150 c0 141 -1 150 -19 150 -11 0 -22 -6
-24 -12 -4 -9 -6 -8 -6 3 -1 8 4 20 11 27 6 6 9 15 5 19 -4 3 -14 -2 -22 -13
-10 -13 -17 -15 -22 -8 -5 6 -23 15 -40 19 -26 5 -33 3 -33 -9 0 -11 -9 -16
-31 -16 -24 0 -30 4 -25 15 3 9 0 15 -9 15 -8 0 -15 9 -15 20 0 22 -15 27 -26
9 -4 -8 -9 -7 -15 2 -4 7 -11 11 -14 7 -10 -9 18 -48 35 -48 12 -1 11 -4 -4
-15 -20 -15 -40 -10 -33 9 3 6 -1 17 -9 24 -10 9 -15 8 -23 -6 -10 -16 -10
-16 -11 1 0 25 -19 21 -42 -9 l-21 -26 -24 26 c-27 29 -43 33 -43 11 0 -8 3
-15 8 -15 4 0 12 -12 19 -26 l12 -25 -34 19 c-36 22 -55 14 -55 -22 0 -21 -10
-17 -14 6 -1 7 -5 18 -9 25 -4 6 -3 14 3 18 15 9 12 19 -11 33 -26 16 -109 6
-109 -13 0 -8 -14 -21 -32 -29 -28 -14 -33 -14 -48 -1 -9 8 -20 12 -23 8 -4
-3 -7 3 -7 15 0 12 5 22 10 22 6 0 10 -3 10 -8 0 -4 9 -13 20 -20 28 -17 47
-4 21 15 -12 8 -21 25 -21 39 0 17 -5 24 -20 24 -11 0 -20 7 -20 15 0 8 -7 15
-15 15 -8 0 -15 -6 -15 -12 1 -17 30 -56 30 -40 0 7 5 12 12 12 6 0 3 -9 -7
-20 -10 -11 -26 -20 -37 -20 -14 0 -18 8 -18 40 0 34 -2 39 -14 28 -10 -9 -11
-15 -2 -20 6 -4 -2 -8 -18 -8 -16 0 -27 3 -23 6 3 3 -3 15 -13 27 -15 15 -34
21 -75 22 -31 1 -58 -2 -61 -7 -3 -4 -10 -6 -15 -2 -5 3 -7 10 -3 15 3 6 -1
18 -10 28 -9 10 -16 22 -15 27 6 24 -14 44 -37 38 -21 -6 -24 -3 -24 25 0 33
-16 43 -22 14 -3 -14 -9 -10 -26 17 -16 25 -18 36 -9 42 7 4 8 8 3 8 -5 0 -17
-7 -27 -16 -16 -15 -20 -15 -34 -1 -14 14 -13 16 5 19 28 4 26 22 -1 26 -18 3
-19 6 -8 13 12 8 12 10 -1 19 -12 8 -13 13 -2 30 15 24 15 30 2 30 -5 0 -10
-6 -10 -13 0 -7 -16 -21 -35 -30 -34 -16 -46 -12 -24 10 6 6 8 16 4 22 -10 18
-22 4 -22 -25 0 -14 -7 -30 -14 -35 -18 -11 -25 -3 -11 13 5 7 13 31 17 53 17
103 37 180 60 223 13 26 37 74 51 107 15 33 37 76 49 95 60 97 100 267 93 392
-4 62 -9 82 -24 94 -10 8 -13 13 -6 9 18 -9 15 1 -20 65 -27 49 -31 63 -21 78
7 12 8 31 3 53 -7 31 -8 32 -9 7z m3 -207 c3 -4 -3 -16 -14 -26 -19 -17 -19
-17 -7 9 14 29 14 29 21 17z m-50 -46 c3 -8 1 -15 -4 -15 -6 0 -10 7 -10 15 0
8 2 15 4 15 2 0 6 -7 10 -15z m66 -16 c0 -5 5 -7 10 -4 6 3 17 -1 26 -9 20
-21 2 -98 -21 -89 -19 7 -32 56 -17 61 7 2 12 8 12 13 0 4 -7 6 -15 3 -10 -4
-15 0 -15 15 0 12 5 21 10 21 6 0 10 -5 10 -11z m-210 -634 c-39 -40 -71 -49
-46 -13 9 12 23 23 33 24 9 2 21 10 26 19 5 9 11 14 15 11 3 -4 -10 -22 -28
-41z m-28 -317 c-7 -7 -12 -8 -12 -2 0 14 12 26 19 19 2 -3 -1 -11 -7 -17z
m192 -81 c-3 -9 -12 -13 -21 -10 -14 5 -13 8 2 20 22 15 28 12 19 -10z m121
-126 c3 -5 1 -12 -5 -16 -5 -3 -10 1 -10 9 0 18 6 21 15 7z m151 -45 c1 0 5
-11 8 -23 6 -17 3 -23 -8 -23 -9 0 -16 7 -16 15 0 8 -9 15 -20 15 -20 0 -26
11 -13 23 5 6 42 0 49 -7z m142 -98 c-6 -18 -28 -21 -28 -4 0 9 7 16 16 16 9
0 14 -5 12 -12z m689 -34 c-3 -3 -12 -4 -19 -1 -8 3 -5 6 6 6 11 1 17 -2 13
-5z m-383 -19 c19 -15 19 -15 -1 -15 -11 0 -23 7 -27 15 -7 19 3 19 28 0z"/>
<path d="M1941 1884 c-1 -18 26 -37 34 -24 3 5 0 10 -9 10 -8 0 -17 6 -19 13
-4 7 -6 8 -6 1z"/>
<path d="M1410 1821 c-8 -16 -6 -21 13 -27 12 -4 49 -27 83 -52 66 -48 144
-83 184 -81 20 1 18 3 -12 11 -23 6 -35 14 -32 22 3 8 -4 12 -18 12 -13 -1
-26 8 -33 21 -7 13 -15 20 -18 16 -4 -3 -30 17 -59 45 -56 55 -90 66 -108 33z"/>
<path d="M1740 1768 c0 -7 11 -35 25 -63 13 -27 25 -55 25 -61 0 -13 35 -25
44 -16 3 3 0 12 -7 21 -11 14 -10 14 6 2 17 -14 21 -12 46 17 16 17 30 29 33
27 3 -3 5 1 5 8 0 6 4 20 8 30 7 16 2 17 -43 15 -28 -2 -50 -7 -49 -12 1 -5
-8 -10 -21 -11 -15 -1 -32 9 -47 27 -14 16 -25 24 -25 16z m120 -62 c0 -3 -4
-8 -10 -11 -5 -3 -10 -1 -10 4 0 6 5 11 10 11 6 0 10 -2 10 -4z m-42 -31 c-3
-3 -9 2 -12 12 -6 14 -5 15 5 6 7 -7 10 -15 7 -18z"/>
<path d="M4996 1759 c-14 -14 -23 -15 -40 -7 -19 8 -31 4 -69 -23 -47 -33 -58
-53 -34 -62 9 -3 8 -12 -5 -35 -10 -16 -18 -47 -17 -69 0 -29 2 -33 8 -18 17
43 31 92 31 113 0 12 8 23 20 27 11 3 20 11 20 16 0 6 4 8 9 5 5 -3 14 1 21 9
7 8 18 15 24 15 14 1 62 37 56 43 -3 2 -13 -4 -24 -14z"/>
<path d="M2790 1720 c0 -11 4 -20 9 -20 11 0 22 26 14 34 -12 12 -23 5 -23
-14z"/>
<path d="M1360 1703 c-20 -8 -50 -34 -50 -45 0 -5 10 -2 23 7 12 8 44 16 70
17 54 3 61 13 16 22 -35 7 -38 7 -59 -1z"/>
<path d="M1715 1699 c-4 -6 -5 -12 -2 -15 2 -3 7 2 10 11 7 17 1 20 -8 4z"/>
<path d="M3520 1580 c-13 -8 -12 -10 3 -10 9 0 17 -8 17 -17 0 -12 3 -14 10
-7 11 11 4 44 -9 44 -3 0 -13 -5 -21 -10z"/>
<path d="M4675 1561 c-3 -5 -1 -12 5 -16 5 -3 10 1 10 9 0 18 -6 21 -15 7z"/>
<path d="M4641 1526 c-8 -9 -11 -19 -7 -23 9 -9 29 13 24 27 -2 8 -8 7 -17 -4z"/>
<path d="M4510 1439 c0 -5 5 -7 10 -4 6 3 10 8 10 11 0 2 -4 4 -10 4 -5 0 -10
-5 -10 -11z"/>
<path d="M5045 1440 c-3 -5 -2 -10 4 -10 5 0 13 5 16 10 3 6 2 10 -4 10 -5 0
-13 -4 -16 -10z"/>
<path d="M1012 1097 c-6 -7 -7 -19 -3 -26 6 -9 10 -5 13 13 6 30 5 31 -10 13z"/>
<path d="M960 1080 c0 -5 4 -10 9 -10 4 0 6 -11 3 -25 -2 -14 -8 -22 -13 -19
-5 3 -9 1 -9 -5 0 -20 22 -23 39 -5 16 17 16 21 2 46 -16 28 -31 37 -31 18z"/>
<path d="M4032 654 c-7 -8 -8 -14 -3 -14 10 0 25 19 20 25 -2 1 -10 -3 -17
-11z"/>
<path d="M5740 634 c0 -8 5 -12 10 -9 6 4 8 11 5 16 -9 14 -15 11 -15 -7z"/>
<path d="M5870 541 c-6 -12 -7 -21 -1 -21 10 0 24 30 17 37 -2 3 -9 -5 -16
-16z"/>
<path d="M5910 546 c0 -2 9 -6 20 -9 11 -3 18 -1 14 4 -5 9 -34 13 -34 5z"/>
<path d="M5896 493 c-11 -11 -6 -23 9 -23 8 0 15 4 15 9 0 13 -16 22 -24 14z"/>
<path d="M5950 480 c0 -5 5 -10 10 -10 6 0 10 5 10 10 0 6 -4 10 -10 10 -5 0
-10 -4 -10 -10z"/>
<path d="M6468 433 c7 -3 16 -2 19 1 4 3 -2 6 -13 5 -11 0 -14 -3 -6 -6z"/>
<path d="M6561 410 c0 -8 4 -22 9 -30 8 -13 10 -12 10 3 0 12 8 17 28 17 20 0
23 3 13 9 -9 6 -22 6 -32 0 -12 -6 -19 -5 -22 4 -4 8 -6 7 -6 -3z"/>
<path d="M6676 397 c3 -10 9 -15 12 -12 3 3 0 11 -7 18 -10 9 -11 8 -5 -6z"/>
<path d="M6220 390 c0 -5 5 -10 10 -10 6 0 10 5 10 10 0 6 -4 10 -10 10 -5 0
-10 -4 -10 -10z"/>
<path d="M6465 384 c-18 -14 -18 -14 2 -14 23 0 39 15 26 23 -5 3 -17 -1 -28
-9z"/>
<path d="M6390 354 c0 -14 5 -24 11 -22 6 2 10 7 10 11 -1 4 -1 14 -1 22 0 8
-4 15 -10 15 -5 0 -10 -12 -10 -26z"/>
<path d="M6510 365 c0 -8 5 -15 10 -15 6 0 10 7 10 15 0 8 -4 15 -10 15 -5 0
-10 -7 -10 -15z"/>
<path d="M6880 320 c0 -5 5 -10 10 -10 6 0 10 5 10 10 0 6 -4 10 -10 10 -5 0
-10 -4 -10 -10z"/>
<path d="M1551 14 c0 -11 3 -14 6 -6 3 7 2 16 -1 19 -3 4 -6 -2 -5 -13z"/>
</g>
</svg>
